<svg width="500" height="300" viewBox="0 0 500 300" fill="none" xmlns="http://www.w3.org/2000/svg">
<rect width="500" height="300" rx="20" fill="url(#paint0_linear_71_57)"/>
<path d="M231.896 161V139.182H236.509V157.197H245.863V161H231.896ZM262.394 139.182H267.007V153.351C267.007 154.942 266.627 156.334 265.867 157.527C265.115 158.72 264.06 159.651 262.703 160.318C261.347 160.979 259.767 161.309 257.963 161.309C256.151 161.309 254.568 160.979 253.211 160.318C251.855 159.651 250.8 158.72 250.047 157.527C249.294 156.334 248.918 154.942 248.918 153.351V139.182H253.531V152.957C253.531 153.788 253.712 154.526 254.074 155.173C254.443 155.819 254.962 156.327 255.629 156.696C256.297 157.065 257.075 157.25 257.963 157.25C258.857 157.25 259.635 157.065 260.296 156.696C260.963 156.327 261.478 155.819 261.84 155.173C262.21 154.526 262.394 153.788 262.394 152.957V139.182ZM270.803 139.182H276.491L282.5 153.841H282.756L288.764 139.182H294.453V161H289.979V146.799H289.798L284.151 160.893H281.104L275.458 146.746H275.277V161H270.803V139.182ZM302.867 139.182V161H298.254V139.182H302.867ZM324.911 139.182V161H320.927L311.435 147.268H311.275V161H306.662V139.182H310.71L320.128 152.903H320.32V139.182H324.911ZM348.772 150.091C348.772 152.47 348.321 154.494 347.419 156.163C346.524 157.832 345.303 159.107 343.754 159.988C342.213 160.862 340.48 161.298 338.556 161.298C336.617 161.298 334.877 160.858 333.335 159.977C331.794 159.097 330.576 157.822 329.681 156.153C328.786 154.484 328.339 152.463 328.339 150.091C328.339 147.712 328.786 145.688 329.681 144.018C330.576 142.349 331.794 141.078 333.335 140.205C334.877 139.324 336.617 138.884 338.556 138.884C340.48 138.884 342.213 139.324 343.754 140.205C345.303 141.078 346.524 142.349 347.419 144.018C348.321 145.688 348.772 147.712 348.772 150.091ZM344.095 150.091C344.095 148.55 343.865 147.25 343.403 146.192C342.948 145.134 342.306 144.331 341.475 143.784C340.644 143.237 339.671 142.964 338.556 142.964C337.441 142.964 336.468 143.237 335.637 143.784C334.806 144.331 334.159 145.134 333.698 146.192C333.243 147.25 333.016 148.55 333.016 150.091C333.016 151.632 333.243 152.932 333.698 153.99C334.159 155.048 334.806 155.851 335.637 156.398C336.468 156.945 337.441 157.218 338.556 157.218C339.671 157.218 340.644 156.945 341.475 156.398C342.306 155.851 342.948 155.048 343.403 153.99C343.865 152.932 344.095 151.632 344.095 150.091ZM364.025 145.457C363.94 144.597 363.574 143.93 362.928 143.454C362.282 142.978 361.404 142.74 360.297 142.74C359.544 142.74 358.908 142.847 358.39 143.06C357.871 143.266 357.473 143.553 357.196 143.923C356.926 144.292 356.792 144.711 356.792 145.18C356.777 145.57 356.859 145.911 357.037 146.202C357.221 146.494 357.473 146.746 357.793 146.959C358.113 147.165 358.482 147.346 358.901 147.502C359.32 147.651 359.767 147.779 360.243 147.886L362.203 148.354C363.155 148.567 364.029 148.852 364.824 149.207C365.62 149.562 366.309 149.999 366.891 150.517C367.473 151.036 367.924 151.646 368.244 152.349C368.571 153.053 368.738 153.859 368.745 154.768C368.738 156.103 368.397 157.261 367.722 158.241C367.054 159.214 366.088 159.97 364.824 160.51C363.567 161.043 362.051 161.309 360.275 161.309C358.514 161.309 356.98 161.039 355.673 160.499C354.373 159.96 353.358 159.161 352.626 158.102C351.902 157.037 351.522 155.719 351.486 154.15H355.95C356 154.881 356.209 155.492 356.578 155.982C356.955 156.465 357.456 156.831 358.081 157.08C358.713 157.321 359.426 157.442 360.222 157.442C361.003 157.442 361.681 157.328 362.257 157.101C362.839 156.874 363.29 156.558 363.61 156.153C363.929 155.748 364.089 155.283 364.089 154.757C364.089 154.267 363.944 153.855 363.652 153.521C363.368 153.187 362.949 152.903 362.395 152.669C361.848 152.435 361.177 152.222 360.382 152.03L358.006 151.433C356.167 150.986 354.714 150.286 353.649 149.335C352.583 148.383 352.054 147.101 352.061 145.489C352.054 144.168 352.406 143.013 353.116 142.026C353.833 141.039 354.817 140.268 356.067 139.714C357.317 139.161 358.738 138.884 360.328 138.884C361.948 138.884 363.361 139.161 364.569 139.714C365.783 140.268 366.728 141.039 367.402 142.026C368.077 143.013 368.425 144.157 368.446 145.457H364.025ZM376.46 139.182V161H371.847V139.182H376.46ZM379.425 142.985V139.182H397.344V142.985H390.664V161H386.104V142.985H379.425ZM399.016 139.182H404.183L409.158 148.578H409.371L414.347 139.182H419.513L411.555 153.287V161H406.974V153.287L399.016 139.182Z" fill="white"/>
<path d="M173.75 162.5C175 156.25 178.125 151.875 183.125 146.875C189.375 141.25 192.5 133.125 192.5 125C192.5 115.054 188.549 105.516 181.517 98.4835C174.484 91.4509 164.946 87.5 155 87.5C145.054 87.5 135.516 91.4509 128.483 98.4835C121.451 105.516 117.5 115.054 117.5 125C117.5 131.25 118.75 138.75 126.875 146.875C131.25 151.25 135 156.25 136.25 162.5" stroke="white" stroke-width="13.25" stroke-linecap="round" stroke-linejoin="round"/>
<path d="M136.25 187.5H173.75" stroke="white" stroke-width="13.25" stroke-linecap="round" stroke-linejoin="round"/>
<path d="M142.5 212.5H167.5" stroke="white" stroke-width="13.25" stroke-linecap="round" stroke-linejoin="round"/>
<defs>
<linearGradient id="paint0_linear_71_57" x1="-15.5" y1="-12.5" x2="529" y2="317" gradientUnits="userSpaceOnUse">
<stop stop-color="#030B5D"/>
<stop offset="1" stop-color="#A200B1"/>
</linearGradient>
</defs>
</svg>
