<svg width="500" height="300" viewBox="0 0 500 300" fill="none" xmlns="http://www.w3.org/2000/svg">
<rect width="500" height="300" rx="20" fill="url(#paint0_linear_71_30)"/>
<path d="M214.065 142.985V139.182H231.984V142.985H225.305V161H220.745V142.985H214.065ZM234.935 161V139.182H249.637V142.985H239.548V148.184H248.881V151.987H239.548V157.197H249.68V161H234.935ZM253.305 139.182H258.993L265.002 153.841H265.258L271.266 139.182H276.955V161H272.481V146.799H272.3L266.653 160.893H263.606L257.96 146.746H257.779V161H253.305V139.182ZM280.756 161V139.182H289.364C291.018 139.182 292.428 139.498 293.593 140.13C294.758 140.755 295.646 141.625 296.256 142.74C296.874 143.848 297.183 145.126 297.183 146.575C297.183 148.024 296.871 149.303 296.246 150.411C295.621 151.518 294.715 152.381 293.529 152.999C292.35 153.617 290.923 153.926 289.246 153.926H283.76V150.229H288.501C289.388 150.229 290.12 150.077 290.695 149.771C291.278 149.459 291.711 149.029 291.995 148.482C292.286 147.928 292.432 147.293 292.432 146.575C292.432 145.851 292.286 145.219 291.995 144.679C291.711 144.132 291.278 143.71 290.695 143.411C290.113 143.106 289.374 142.953 288.479 142.953H285.369V161H280.756ZM300.18 161V139.182H314.881V142.985H304.792V148.184H314.125V151.987H304.792V157.197H314.924V161H300.18ZM318.549 161V139.182H327.157C328.804 139.182 330.211 139.477 331.375 140.066C332.547 140.648 333.439 141.476 334.049 142.548C334.667 143.614 334.976 144.867 334.976 146.309C334.976 147.758 334.664 149.004 334.039 150.048C333.414 151.085 332.508 151.881 331.322 152.435C330.143 152.989 328.716 153.266 327.039 153.266H321.276V149.558H326.294C327.174 149.558 327.906 149.437 328.488 149.196C329.071 148.955 329.504 148.592 329.788 148.109C330.079 147.626 330.225 147.026 330.225 146.309C330.225 145.585 330.079 144.974 329.788 144.477C329.504 143.979 329.067 143.603 328.478 143.347C327.895 143.085 327.16 142.953 326.272 142.953H323.162V161H318.549ZM330.331 151.071L335.754 161H330.662L325.356 151.071H330.331ZM341.997 161H337.054L344.586 139.182H350.53L358.051 161H353.108L347.643 144.168H347.473L341.997 161ZM341.688 152.424H353.364V156.025H341.688V152.424ZM357.181 142.985V139.182H375.1V142.985H368.42V161H363.86V142.985H357.181ZM391.527 139.182H396.14V153.351C396.14 154.942 395.76 156.334 395 157.527C394.247 158.72 393.193 159.651 391.836 160.318C390.48 160.979 388.899 161.309 387.095 161.309C385.284 161.309 383.7 160.979 382.344 160.318C380.987 159.651 379.933 158.72 379.18 157.527C378.427 156.334 378.051 154.942 378.051 153.351V139.182H382.664V152.957C382.664 153.788 382.845 154.526 383.207 155.173C383.576 155.819 384.095 156.327 384.762 156.696C385.43 157.065 386.208 157.25 387.095 157.25C387.99 157.25 388.768 157.065 389.428 156.696C390.096 156.327 390.611 155.819 390.973 155.173C391.343 154.526 391.527 153.788 391.527 152.957V139.182ZM399.935 161V139.182H408.543C410.191 139.182 411.597 139.477 412.762 140.066C413.934 140.648 414.825 141.476 415.436 142.548C416.054 143.614 416.363 144.867 416.363 146.309C416.363 147.758 416.05 149.004 415.425 150.048C414.8 151.085 413.895 151.881 412.709 152.435C411.53 152.989 410.102 153.266 408.426 153.266H402.663V149.558H407.68C408.561 149.558 409.293 149.437 409.875 149.196C410.457 148.955 410.891 148.592 411.175 148.109C411.466 147.626 411.612 147.026 411.612 146.309C411.612 145.585 411.466 144.974 411.175 144.477C410.891 143.979 410.454 143.603 409.864 143.347C409.282 143.085 408.547 142.953 407.659 142.953H404.548V161H399.935ZM411.718 151.071L417.141 161H412.048L406.743 151.071H411.718ZM419.623 161V139.182H434.325V142.985H424.236V148.184H433.568V151.987H424.236V157.197H434.367V161H419.623Z" fill="white"/>
<path d="M138 131.25C132.423 131.16 126.977 132.938 122.526 136.3C118.076 139.662 114.878 144.416 113.441 149.805C112.004 155.194 112.41 160.909 114.596 166.041C116.781 171.172 120.619 175.426 125.5 178.125" stroke="white" stroke-width="13.25" stroke-linecap="round" stroke-linejoin="round"/>
<path d="M138 93.75V106.25" stroke="white" stroke-width="13.25" stroke-linecap="round" stroke-linejoin="round"/>
<path d="M104.25 190L95.4995 198.75" stroke="white" stroke-width="13.25" stroke-linecap="round" stroke-linejoin="round"/>
<path d="M188 100V165.875C192.766 168.627 196.491 172.874 198.597 177.959C200.703 183.043 201.073 188.68 199.648 193.996C198.224 199.312 195.085 204.009 190.719 207.359C186.353 210.71 181.003 212.526 175.5 212.526C169.997 212.526 164.647 210.71 160.281 207.359C155.915 204.009 152.776 199.312 151.352 193.996C149.927 188.68 150.297 183.043 152.403 177.959C154.509 172.874 158.234 168.627 163 165.875V100C163 96.6848 164.317 93.5054 166.661 91.1612C169.005 88.817 172.185 87.5 175.5 87.5C178.815 87.5 181.995 88.817 184.339 91.1612C186.683 93.5054 188 96.6848 188 100Z" stroke="white" stroke-width="13.25" stroke-linecap="round" stroke-linejoin="round"/>
<path d="M88 156.25H75.5" stroke="white" stroke-width="13.25" stroke-linecap="round" stroke-linejoin="round"/>
<path d="M102.625 120.875L93.812 112.062" stroke="white" stroke-width="13.25" stroke-linecap="round" stroke-linejoin="round"/>
<defs>
<linearGradient id="paint0_linear_71_30" x1="-15.5" y1="-12.5" x2="529" y2="317" gradientUnits="userSpaceOnUse">
<stop stop-color="#030B5D"/>
<stop offset="1" stop-color="#A200B1"/>
</linearGradient>
</defs>
</svg>
