<svg width="500" height="300" viewBox="0 0 500 300" fill="none" xmlns="http://www.w3.org/2000/svg">
<rect width="500" height="300" rx="10" fill="#030B5D"/>
<path d="M124.99 104.553C124.998 101.954 124.486 99.3793 123.484 96.9809C122.482 94.5825 121.011 92.4087 119.156 90.5873C117.302 88.7659 115.102 87.3337 112.686 86.3749C110.271 85.4161 107.687 84.9501 105.089 85.0042C102.49 85.0584 99.9284 85.6317 97.5546 86.6903C95.1807 87.7489 93.0425 89.2716 91.2657 91.1687C89.4889 93.0658 88.1094 95.299 87.2084 97.737C86.3073 100.175 85.9028 102.769 86.0188 105.365C82.199 106.347 78.6527 108.186 75.6487 110.742C72.6446 113.297 70.2615 116.503 68.6797 120.116C67.098 123.729 66.3592 127.655 66.5193 131.595C66.6793 135.536 67.7341 139.389 69.6035 142.862C66.3165 145.532 63.7317 148.965 62.074 152.863C60.4163 156.76 59.7359 161.003 60.0921 165.223C60.4482 169.443 61.8301 173.512 64.1175 177.077C66.4049 180.641 69.5286 183.592 73.2167 185.674C72.7613 189.198 73.0331 192.777 74.0153 196.192C74.9975 199.607 76.6694 202.783 78.9275 205.527C81.1857 208.27 83.9822 210.521 87.1445 212.141C90.3067 213.761 93.7675 214.715 97.3131 214.945C100.859 215.176 104.414 214.676 107.759 213.479C111.104 212.281 114.168 210.41 116.762 207.982C119.355 205.554 121.424 202.619 122.839 199.36C124.254 196.101 124.987 192.587 124.99 189.034V104.553Z" stroke="white" stroke-width="12.997" stroke-linecap="round" stroke-linejoin="round"/>
<path d="M105.494 156.541C110.95 154.622 115.714 151.128 119.185 146.501C122.655 141.874 124.675 136.322 124.99 130.547" stroke="white" stroke-width="12.997" stroke-linecap="round" stroke-linejoin="round"/>
<path d="M86.0178 105.365C86.1463 108.509 87.0337 111.575 88.6042 114.301" stroke="white" stroke-width="12.997" stroke-linecap="round" stroke-linejoin="round"/>
<path d="M69.6033 142.868C70.7921 141.9 72.0643 141.039 73.4049 140.295" stroke="white" stroke-width="12.997" stroke-linecap="round" stroke-linejoin="round"/>
<path d="M85.9984 189.034C81.5198 189.036 77.1167 187.881 73.2158 185.68" stroke="white" stroke-width="12.997" stroke-linecap="round" stroke-linejoin="round"/>
<path d="M124.99 156.541H150.984" stroke="white" stroke-width="12.997" stroke-linecap="round" stroke-linejoin="round"/>
<path d="M124.99 189.034H163.981C167.428 189.034 170.734 190.403 173.171 192.841C175.609 195.278 176.978 198.584 176.978 202.031V208.529" stroke="white" stroke-width="12.997" stroke-linecap="round" stroke-linejoin="round"/>
<path d="M124.99 124.049H176.978" stroke="white" stroke-width="12.997" stroke-linecap="round" stroke-linejoin="round"/>
<path d="M150.984 124.049V104.553C150.984 101.106 152.353 97.8002 154.791 95.3628C157.228 92.9254 160.534 91.556 163.981 91.556" stroke="white" stroke-width="12.997" stroke-linecap="round" stroke-linejoin="round"/>
<path d="M150.984 159.79C152.779 159.79 154.233 158.336 154.233 156.541C154.233 154.747 152.779 153.292 150.984 153.292C149.19 153.292 147.735 154.747 147.735 156.541C147.735 158.336 149.19 159.79 150.984 159.79Z" stroke="white" stroke-width="12.997" stroke-linecap="round" stroke-linejoin="round"/>
<path d="M163.981 94.8053C165.775 94.8053 167.23 93.3506 167.23 91.5561C167.23 89.7616 165.775 88.3068 163.981 88.3068C162.186 88.3068 160.732 89.7616 160.732 91.5561C160.732 93.3506 162.186 94.8053 163.981 94.8053Z" stroke="white" stroke-width="12.997" stroke-linecap="round" stroke-linejoin="round"/>
<path d="M176.978 211.779C178.773 211.779 180.228 210.324 180.228 208.529C180.228 206.735 178.773 205.28 176.978 205.28C175.184 205.28 173.729 206.735 173.729 208.529C173.729 210.324 175.184 211.779 176.978 211.779Z" stroke="white" stroke-width="12.997" stroke-linecap="round" stroke-linejoin="round"/>
<path d="M176.978 127.298C178.773 127.298 180.228 125.843 180.228 124.049C180.228 122.254 178.773 120.799 176.978 120.799C175.184 120.799 173.729 122.254 173.729 124.049C173.729 125.843 175.184 127.298 176.978 127.298Z" stroke="white" stroke-width="12.997" stroke-linecap="round" stroke-linejoin="round"/>
<path d="M236.31 145.276C236.196 144.13 235.708 143.24 234.847 142.605C233.985 141.971 232.815 141.653 231.338 141.653C230.334 141.653 229.487 141.795 228.795 142.08C228.104 142.354 227.574 142.738 227.205 143.23C226.845 143.723 226.665 144.281 226.665 144.906C226.646 145.427 226.755 145.882 226.991 146.27C227.238 146.658 227.574 146.994 228 147.278C228.426 147.553 228.919 147.795 229.477 148.003C230.036 148.202 230.633 148.372 231.267 148.514L233.881 149.139C235.15 149.423 236.314 149.802 237.375 150.276C238.436 150.749 239.354 151.331 240.131 152.023C240.907 152.714 241.509 153.528 241.935 154.466C242.37 155.403 242.593 156.478 242.602 157.69C242.593 159.471 242.138 161.014 241.239 162.321C240.348 163.618 239.061 164.627 237.375 165.347C235.699 166.057 233.677 166.412 231.31 166.412C228.961 166.412 226.916 166.052 225.173 165.332C223.44 164.613 222.086 163.547 221.111 162.136C220.145 160.716 219.638 158.959 219.591 156.866H225.543C225.609 157.842 225.888 158.656 226.381 159.31C226.883 159.954 227.55 160.441 228.384 160.773C229.226 161.095 230.178 161.256 231.239 161.256C232.28 161.256 233.185 161.104 233.952 160.801C234.728 160.498 235.33 160.077 235.756 159.537C236.182 158.997 236.395 158.377 236.395 157.676C236.395 157.023 236.201 156.473 235.812 156.028C235.434 155.583 234.875 155.205 234.136 154.892C233.407 154.58 232.512 154.295 231.452 154.04L228.284 153.244C225.831 152.648 223.895 151.715 222.474 150.446C221.054 149.177 220.348 147.468 220.358 145.318C220.348 143.557 220.817 142.018 221.764 140.702C222.721 139.385 224.032 138.358 225.699 137.619C227.366 136.881 229.259 136.511 231.381 136.511C233.54 136.511 235.424 136.881 237.034 137.619C238.653 138.358 239.913 139.385 240.812 140.702C241.712 142.018 242.176 143.543 242.205 145.276H236.31ZM246.739 136.909H254.325L262.336 156.455H262.677L270.688 136.909H278.273V166H272.308V147.065H272.066L264.538 165.858H260.475L252.947 146.994H252.705V166H246.739V136.909ZM288.355 166H281.764L291.807 136.909H299.733L309.761 166H303.17L295.884 143.557H295.656L288.355 166ZM287.943 154.565H303.511V159.366H287.943V154.565ZM313.263 166V136.909H324.74C326.937 136.909 328.812 137.302 330.365 138.088C331.928 138.865 333.116 139.968 333.93 141.398C334.754 142.818 335.166 144.49 335.166 146.412C335.166 148.344 334.75 150.006 333.916 151.398C333.083 152.78 331.875 153.841 330.294 154.58C328.722 155.318 326.819 155.688 324.584 155.688H316.899V150.744H323.589C324.764 150.744 325.739 150.583 326.516 150.261C327.292 149.939 327.87 149.456 328.249 148.812C328.637 148.169 328.831 147.368 328.831 146.412C328.831 145.446 328.637 144.632 328.249 143.969C327.87 143.306 327.287 142.804 326.501 142.463C325.725 142.113 324.745 141.938 323.561 141.938H319.413V166H313.263ZM328.973 152.761L336.203 166H329.413L322.339 152.761H328.973ZM338.405 141.98V136.909H362.297V141.98H353.391V166H347.311V141.98H338.405ZM401.157 147.094H394.935C394.822 146.289 394.59 145.574 394.239 144.949C393.889 144.314 393.439 143.775 392.89 143.33C392.341 142.884 391.706 142.544 390.987 142.307C390.276 142.07 389.504 141.952 388.671 141.952C387.165 141.952 385.854 142.326 384.737 143.074C383.619 143.812 382.753 144.892 382.137 146.312C381.522 147.723 381.214 149.437 381.214 151.455C381.214 153.528 381.522 155.271 382.137 156.682C382.762 158.093 383.633 159.158 384.751 159.878C385.868 160.598 387.161 160.957 388.629 160.957C389.452 160.957 390.215 160.848 390.915 160.631C391.626 160.413 392.255 160.096 392.805 159.679C393.354 159.253 393.808 158.737 394.168 158.131C394.538 157.525 394.793 156.833 394.935 156.057L401.157 156.085C400.996 157.42 400.594 158.708 399.95 159.949C399.315 161.18 398.458 162.283 397.379 163.259C396.308 164.224 395.03 164.991 393.543 165.56C392.066 166.118 390.395 166.398 388.529 166.398C385.934 166.398 383.614 165.811 381.569 164.636C379.533 163.462 377.923 161.762 376.739 159.537C375.565 157.312 374.978 154.617 374.978 151.455C374.978 148.282 375.575 145.583 376.768 143.358C377.961 141.133 379.58 139.437 381.626 138.273C383.671 137.098 385.972 136.511 388.529 136.511C390.215 136.511 391.777 136.748 393.217 137.222C394.665 137.695 395.949 138.386 397.066 139.295C398.183 140.195 399.093 141.298 399.793 142.605C400.504 143.912 400.958 145.408 401.157 147.094ZM411.718 136.909V166H405.567V136.909H411.718ZM415.67 141.98V136.909H439.562V141.98H430.656V166H424.577V141.98H415.67ZM441.793 136.909H448.682L455.315 149.438H455.599L462.233 136.909H469.122L458.511 155.716V166H452.403V155.716L441.793 136.909Z" fill="white"/>
</svg>
