<svg width="500" height="300" viewBox="0 0 500 300" fill="none" xmlns="http://www.w3.org/2000/svg">
<rect width="500" height="300" rx="20" fill="url(#paint0_linear_71_42)"/>
<path d="M250.896 161V139.182H255.509V148.184H264.874V139.182H269.476V161H264.874V151.987H255.509V161H250.896ZM286.756 139.182H291.369V153.351C291.369 154.942 290.989 156.334 290.229 157.527C289.476 158.72 288.421 159.651 287.065 160.318C285.708 160.979 284.128 161.309 282.324 161.309C280.513 161.309 278.929 160.979 277.572 160.318C276.216 159.651 275.161 158.72 274.408 157.527C273.656 156.334 273.279 154.942 273.279 153.351V139.182H277.892V152.957C277.892 153.788 278.073 154.526 278.435 155.173C278.805 155.819 279.323 156.327 279.991 156.696C280.658 157.065 281.436 157.25 282.324 157.25C283.219 157.25 283.996 157.065 284.657 156.696C285.325 156.327 285.839 155.819 286.202 155.173C286.571 154.526 286.756 153.788 286.756 152.957V139.182ZM295.164 139.182H300.853L306.861 153.841H307.117L313.126 139.182H318.814V161H314.34V146.799H314.159L308.513 160.893H305.466L299.819 146.746H299.638V161H295.164V139.182ZM327.228 139.182V161H322.615V139.182H327.228ZM338.758 161H331.023V139.182H338.822C341.016 139.182 342.905 139.619 344.489 140.492C346.073 141.359 347.291 142.605 348.143 144.232C349.003 145.858 349.432 147.804 349.432 150.07C349.432 152.342 349.003 154.295 348.143 155.929C347.291 157.562 346.066 158.816 344.468 159.69C342.877 160.563 340.974 161 338.758 161ZM335.636 157.048H338.566C339.93 157.048 341.077 156.806 342.007 156.323C342.944 155.833 343.648 155.077 344.116 154.054C344.592 153.024 344.83 151.696 344.83 150.07C344.83 148.457 344.592 147.14 344.116 146.117C343.648 145.094 342.948 144.342 342.018 143.859C341.087 143.376 339.94 143.134 338.577 143.134H335.636V157.048ZM357.462 139.182V161H352.849V139.182H357.462ZM360.427 142.985V139.182H378.346V142.985H371.666V161H367.106V142.985H360.427ZM380.018 139.182H385.185L390.16 148.578H390.373L395.349 139.182H400.515L392.557 153.287V161H387.976V153.287L380.018 139.182Z" fill="white"/>
<path d="M142.75 176.875C156.5 176.875 167.75 165.437 167.75 151.562C167.75 144.312 164.187 137.438 157.062 131.625C149.937 125.813 144.562 117.188 142.75 108.125C140.938 117.188 135.625 125.875 128.438 131.625C121.25 137.375 117.75 144.375 117.75 151.562C117.75 165.437 129 176.875 142.75 176.875Z" stroke="white" stroke-width="13.25" stroke-linecap="round" stroke-linejoin="round"/>
<path d="M177.5 116.25C181.798 109.382 184.846 101.807 186.5 93.875C189.625 109.5 199 124.5 211.5 134.5C224 144.5 230.25 156.375 230.25 168.875C230.286 177.514 227.755 185.97 222.98 193.169C218.204 200.369 211.399 205.988 203.426 209.316C195.453 212.643 186.671 213.528 178.195 211.858C169.718 210.188 161.928 206.04 155.812 199.937" stroke="white" stroke-width="13.25" stroke-linecap="round" stroke-linejoin="round"/>
<defs>
<linearGradient id="paint0_linear_71_42" x1="-15.5" y1="-12.5" x2="529" y2="317" gradientUnits="userSpaceOnUse">
<stop stop-color="#030B5D"/>
<stop offset="1" stop-color="#A200B1"/>
</linearGradient>
</defs>
</svg>
