<svg width="500" height="300" viewBox="0 0 500 300" fill="none" xmlns="http://www.w3.org/2000/svg">
<rect width="500" height="300" rx="20" fill="url(#paint0_linear_71_88)"/>
<path d="M277.147 146.82H272.481C272.396 146.217 272.222 145.68 271.959 145.212C271.696 144.736 271.359 144.331 270.947 143.997C270.535 143.663 270.059 143.408 269.519 143.23C268.987 143.053 268.408 142.964 267.783 142.964C266.653 142.964 265.67 143.244 264.832 143.805C263.994 144.359 263.344 145.169 262.882 146.234C262.42 147.293 262.19 148.578 262.19 150.091C262.19 151.646 262.42 152.953 262.882 154.011C263.351 155.07 264.004 155.869 264.842 156.408C265.68 156.948 266.65 157.218 267.751 157.218C268.369 157.218 268.94 157.136 269.466 156.973C269.999 156.81 270.471 156.572 270.883 156.259C271.295 155.94 271.636 155.553 271.906 155.098C272.183 154.643 272.374 154.125 272.481 153.543L277.147 153.564C277.026 154.565 276.724 155.531 276.241 156.462C275.766 157.385 275.123 158.212 274.313 158.944C273.511 159.668 272.552 160.244 271.437 160.67C270.329 161.089 269.075 161.298 267.676 161.298C265.73 161.298 263.99 160.858 262.456 159.977C260.929 159.097 259.722 157.822 258.834 156.153C257.953 154.484 257.513 152.463 257.513 150.091C257.513 147.712 257.96 145.688 258.855 144.018C259.75 142.349 260.964 141.078 262.499 140.205C264.033 139.324 265.759 138.884 267.676 138.884C268.94 138.884 270.112 139.061 271.192 139.416C272.278 139.771 273.241 140.29 274.079 140.972C274.917 141.646 275.599 142.474 276.124 143.454C276.657 144.434 276.998 145.556 277.147 146.82ZM300.505 150.091C300.505 152.47 300.054 154.494 299.152 156.163C298.257 157.832 297.035 159.107 295.487 159.988C293.946 160.862 292.213 161.298 290.288 161.298C288.349 161.298 286.609 160.858 285.068 159.977C283.527 159.097 282.309 157.822 281.414 156.153C280.519 154.484 280.071 152.463 280.071 150.091C280.071 147.712 280.519 145.688 281.414 144.018C282.309 142.349 283.527 141.078 285.068 140.205C286.609 139.324 288.349 138.884 290.288 138.884C292.213 138.884 293.946 139.324 295.487 140.205C297.035 141.078 298.257 142.349 299.152 144.018C300.054 145.688 300.505 147.712 300.505 150.091ZM295.828 150.091C295.828 148.55 295.597 147.25 295.135 146.192C294.681 145.134 294.038 144.331 293.207 143.784C292.376 143.237 291.403 142.964 290.288 142.964C289.173 142.964 288.2 143.237 287.369 143.784C286.538 144.331 285.892 145.134 285.43 146.192C284.975 147.25 284.748 148.55 284.748 150.091C284.748 151.632 284.975 152.932 285.43 153.99C285.892 155.048 286.538 155.851 287.369 156.398C288.2 156.945 289.173 157.218 290.288 157.218C291.403 157.218 292.376 156.945 293.207 156.398C294.038 155.851 294.681 155.048 295.135 153.99C295.597 152.932 295.828 151.632 295.828 150.091ZM317.398 139.182H322.011V153.351C322.011 154.942 321.631 156.334 320.871 157.527C320.118 158.72 319.064 159.651 317.707 160.318C316.351 160.979 314.77 161.309 312.966 161.309C311.155 161.309 309.572 160.979 308.215 160.318C306.858 159.651 305.804 158.72 305.051 157.527C304.298 156.334 303.922 154.942 303.922 153.351V139.182H308.535V152.957C308.535 153.788 308.716 154.526 309.078 155.173C309.447 155.819 309.966 156.327 310.633 156.696C311.301 157.065 312.079 157.25 312.966 157.25C313.861 157.25 314.639 157.065 315.3 156.696C315.967 156.327 316.482 155.819 316.844 155.173C317.214 154.526 317.398 153.788 317.398 152.957V139.182ZM344.056 139.182V161H340.071L330.579 147.268H330.419V161H325.806V139.182H329.855L339.272 152.903H339.464V139.182H344.056ZM347.036 142.985V139.182H364.955V142.985H358.275V161H353.716V142.985H347.036ZM367.906 161V139.182H382.608V142.985H372.519V148.184H381.851V151.987H372.519V157.197H382.65V161H367.906ZM386.275 161V139.182H394.883C396.531 139.182 397.937 139.477 399.102 140.066C400.274 140.648 401.165 141.476 401.776 142.548C402.394 143.614 402.703 144.867 402.703 146.309C402.703 147.758 402.39 149.004 401.765 150.048C401.14 151.085 400.235 151.881 399.049 152.435C397.87 152.989 396.442 153.266 394.766 153.266H389.002V149.558H394.02C394.901 149.558 395.632 149.437 396.215 149.196C396.797 148.955 397.23 148.592 397.515 148.109C397.806 147.626 397.951 147.026 397.951 146.309C397.951 145.585 397.806 144.974 397.515 144.477C397.23 143.979 396.794 143.603 396.204 143.347C395.622 143.085 394.887 142.953 393.999 142.953H390.888V161H386.275ZM398.058 151.071L403.48 161H398.388L393.083 151.071H398.058Z" fill="white"/>
<path d="M131.625 194.375C107.25 170 107.25 130 131.625 105.625" stroke="white" stroke-width="13.25" stroke-linecap="round" stroke-linejoin="round"/>
<path d="M149.75 176.25C135.375 161.875 135.375 138.125 149.75 123.125" stroke="white" stroke-width="13.25" stroke-linecap="round" stroke-linejoin="round"/>
<path d="M176 162.5C182.904 162.5 188.5 156.904 188.5 150C188.5 143.096 182.904 137.5 176 137.5C169.096 137.5 163.5 143.096 163.5 150C163.5 156.904 169.096 162.5 176 162.5Z" stroke="white" stroke-width="13.25" stroke-linecap="round" stroke-linejoin="round"/>
<path d="M202.25 123.75C216.625 138.125 216.625 161.875 202.25 176.875" stroke="white" stroke-width="13.25" stroke-linecap="round" stroke-linejoin="round"/>
<path d="M220.375 105.625C244.75 130 244.75 169.375 220.375 193.75" stroke="white" stroke-width="13.25" stroke-linecap="round" stroke-linejoin="round"/>
<defs>
<linearGradient id="paint0_linear_71_88" x1="-15.5" y1="-12.5" x2="529" y2="317" gradientUnits="userSpaceOnUse">
<stop stop-color="#030B5D"/>
<stop offset="1" stop-color="#A200B1"/>
</linearGradient>
</defs>
</svg>
