<svg width="500" height="300" viewBox="0 0 500 300" fill="none" xmlns="http://www.w3.org/2000/svg">
<rect width="500" height="300" rx="20" fill="url(#paint0_linear_71_96)"/>
<path d="M249.732 145.457C249.647 144.597 249.281 143.93 248.635 143.454C247.989 142.978 247.112 142.74 246.004 142.74C245.251 142.74 244.615 142.847 244.097 143.06C243.578 143.266 243.18 143.553 242.903 143.923C242.634 144.292 242.499 144.711 242.499 145.18C242.484 145.57 242.566 145.911 242.744 146.202C242.928 146.494 243.18 146.746 243.5 146.959C243.82 147.165 244.189 147.346 244.608 147.502C245.027 147.651 245.474 147.779 245.95 147.886L247.911 148.354C248.862 148.567 249.736 148.852 250.531 149.207C251.327 149.562 252.016 149.999 252.598 150.517C253.18 151.036 253.631 151.646 253.951 152.349C254.278 153.053 254.445 153.859 254.452 154.768C254.445 156.103 254.104 157.261 253.429 158.241C252.761 159.214 251.795 159.97 250.531 160.51C249.274 161.043 247.758 161.309 245.982 161.309C244.221 161.309 242.687 161.039 241.38 160.499C240.08 159.96 239.065 159.161 238.333 158.102C237.609 157.037 237.229 155.719 237.193 154.15H241.657C241.707 154.881 241.916 155.492 242.286 155.982C242.662 156.465 243.163 156.831 243.788 157.08C244.42 157.321 245.134 157.442 245.929 157.442C246.71 157.442 247.388 157.328 247.964 157.101C248.546 156.874 248.997 156.558 249.317 156.153C249.636 155.748 249.796 155.283 249.796 154.757C249.796 154.267 249.651 153.855 249.359 153.521C249.075 153.187 248.656 152.903 248.102 152.669C247.555 152.435 246.884 152.222 246.089 152.03L243.713 151.433C241.874 150.986 240.421 150.286 239.356 149.335C238.29 148.383 237.761 147.101 237.768 145.489C237.761 144.168 238.113 143.013 238.823 142.026C239.54 141.039 240.524 140.268 241.774 139.714C243.024 139.161 244.445 138.884 246.036 138.884C247.655 138.884 249.068 139.161 250.276 139.714C251.49 140.268 252.435 141.039 253.109 142.026C253.784 143.013 254.132 144.157 254.153 145.457H249.732ZM257.555 139.182H263.243L269.252 153.841H269.508L275.516 139.182H281.205V161H276.731V146.799H276.55L270.903 160.893H267.856L262.21 146.746H262.029V161H257.555V139.182ZM288.766 161H283.823L291.355 139.182H297.3L304.821 161H299.878L294.413 144.168H294.242L288.766 161ZM288.457 152.424H300.134V156.025H288.457V152.424ZM307.447 161V139.182H316.055C317.703 139.182 319.109 139.477 320.274 140.066C321.446 140.648 322.337 141.476 322.948 142.548C323.566 143.614 323.875 144.867 323.875 146.309C323.875 147.758 323.562 149.004 322.937 150.048C322.312 151.085 321.407 151.881 320.221 152.435C319.042 152.989 317.614 153.266 315.938 153.266H310.174V149.558H315.192C316.073 149.558 316.804 149.437 317.387 149.196C317.969 148.955 318.402 148.592 318.686 148.109C318.978 147.626 319.123 147.026 319.123 146.309C319.123 145.585 318.978 144.974 318.686 144.477C318.402 143.979 317.966 143.603 317.376 143.347C316.794 143.085 316.059 142.953 315.171 142.953H312.06V161H307.447ZM319.23 151.071L324.652 161H319.56L314.255 151.071H319.23ZM326.304 142.985V139.182H344.223V142.985H337.543V161H332.983V142.985H326.304ZM373.368 146.82H368.702C368.616 146.217 368.442 145.68 368.18 145.212C367.917 144.736 367.579 144.331 367.167 143.997C366.756 143.663 366.28 143.408 365.74 143.23C365.207 143.053 364.628 142.964 364.003 142.964C362.874 142.964 361.89 143.244 361.052 143.805C360.214 144.359 359.564 145.169 359.103 146.234C358.641 147.293 358.41 148.578 358.41 150.091C358.41 151.646 358.641 152.953 359.103 154.011C359.572 155.07 360.225 155.869 361.063 156.408C361.901 156.948 362.871 157.218 363.971 157.218C364.589 157.218 365.161 157.136 365.687 156.973C366.219 156.81 366.692 156.572 367.104 156.259C367.515 155.94 367.856 155.553 368.126 155.098C368.403 154.643 368.595 154.125 368.702 153.543L373.368 153.564C373.247 154.565 372.945 155.531 372.462 156.462C371.986 157.385 371.344 158.212 370.534 158.944C369.731 159.668 368.773 160.244 367.657 160.67C366.55 161.089 365.296 161.298 363.897 161.298C361.951 161.298 360.211 160.858 358.677 159.977C357.15 159.097 355.942 157.822 355.055 156.153C354.174 154.484 353.733 152.463 353.733 150.091C353.733 147.712 354.181 145.688 355.076 144.018C355.971 142.349 357.185 141.078 358.719 140.205C360.253 139.324 361.979 138.884 363.897 138.884C365.161 138.884 366.333 139.061 367.412 139.416C368.499 139.771 369.461 140.29 370.3 140.972C371.138 141.646 371.819 142.474 372.345 143.454C372.878 144.434 373.219 145.556 373.368 146.82ZM381.289 139.182V161H376.676V139.182H381.289ZM384.253 142.985V139.182H402.172V142.985H395.492V161H390.933V142.985H384.253ZM403.844 139.182H409.011L413.987 148.578H414.2L419.175 139.182H424.342L416.384 153.287V161H411.803V153.287L403.844 139.182Z" fill="white"/>
<path d="M156 200H156.063" stroke="white" stroke-width="13.25" stroke-linecap="round" stroke-linejoin="round"/>
<path d="M93.5 130.125C110.688 114.751 132.94 106.252 156 106.252C179.06 106.252 201.312 114.751 218.5 130.125" stroke="white" stroke-width="13.25" stroke-linecap="round" stroke-linejoin="round"/>
<path d="M112.25 155.369C123.933 143.917 139.64 137.503 156 137.503C172.36 137.503 188.067 143.917 199.75 155.369" stroke="white" stroke-width="13.25" stroke-linecap="round" stroke-linejoin="round"/>
<path d="M134.125 177.681C139.967 171.955 147.82 168.748 156 168.748C164.18 168.748 172.033 171.955 177.875 177.681" stroke="white" stroke-width="13.25" stroke-linecap="round" stroke-linejoin="round"/>
<defs>
<linearGradient id="paint0_linear_71_96" x1="-15.5" y1="-12.5" x2="529" y2="317" gradientUnits="userSpaceOnUse">
<stop stop-color="#030B5D"/>
<stop offset="1" stop-color="#A200B1"/>
</linearGradient>
</defs>
</svg>
