<svg width="500" height="300" viewBox="0 0 500 300" fill="none" xmlns="http://www.w3.org/2000/svg">
<rect width="500" height="300" rx="20" fill="url(#paint0_linear_71_106)"/>
<path d="M254.732 145.457C254.647 144.597 254.281 143.93 253.635 143.454C252.989 142.978 252.112 142.74 251.004 142.74C250.251 142.74 249.615 142.847 249.097 143.06C248.578 143.266 248.18 143.553 247.903 143.923C247.634 144.292 247.499 144.711 247.499 145.18C247.484 145.57 247.566 145.911 247.744 146.202C247.928 146.494 248.18 146.746 248.5 146.959C248.82 147.165 249.189 147.346 249.608 147.502C250.027 147.651 250.474 147.779 250.95 147.886L252.911 148.354C253.862 148.567 254.736 148.852 255.531 149.207C256.327 149.562 257.016 149.999 257.598 150.517C258.18 151.036 258.631 151.646 258.951 152.349C259.278 153.053 259.445 153.859 259.452 154.768C259.445 156.103 259.104 157.261 258.429 158.241C257.761 159.214 256.795 159.97 255.531 160.51C254.274 161.043 252.758 161.309 250.982 161.309C249.221 161.309 247.687 161.039 246.38 160.499C245.08 159.96 244.065 159.161 243.333 158.102C242.609 157.037 242.229 155.719 242.193 154.15H246.657C246.707 154.881 246.916 155.492 247.286 155.982C247.662 156.465 248.163 156.831 248.788 157.08C249.42 157.321 250.134 157.442 250.929 157.442C251.71 157.442 252.388 157.328 252.964 157.101C253.546 156.874 253.997 156.558 254.317 156.153C254.636 155.748 254.796 155.283 254.796 154.757C254.796 154.267 254.651 153.855 254.359 153.521C254.075 153.187 253.656 152.903 253.102 152.669C252.555 152.435 251.884 152.222 251.089 152.03L248.713 151.433C246.874 150.986 245.421 150.286 244.356 149.335C243.29 148.383 242.761 147.101 242.768 145.489C242.761 144.168 243.113 143.013 243.823 142.026C244.54 141.039 245.524 140.268 246.774 139.714C248.024 139.161 249.445 138.884 251.036 138.884C252.655 138.884 254.068 139.161 255.276 139.714C256.49 140.268 257.435 141.039 258.109 142.026C258.784 143.013 259.132 144.157 259.153 145.457H254.732ZM262.555 139.182H268.243L274.252 153.841H274.508L280.516 139.182H286.205V161H281.731V146.799H281.55L275.903 160.893H272.856L267.21 146.746H267.029V161H262.555V139.182ZM293.766 161H288.823L296.355 139.182H302.3L309.821 161H304.878L299.413 144.168H299.242L293.766 161ZM293.457 152.424H305.134V156.025H293.457V152.424ZM312.447 161V139.182H321.055C322.703 139.182 324.109 139.477 325.274 140.066C326.446 140.648 327.337 141.476 327.948 142.548C328.566 143.614 328.875 144.867 328.875 146.309C328.875 147.758 328.562 149.004 327.937 150.048C327.312 151.085 326.407 151.881 325.221 152.435C324.042 152.989 322.614 153.266 320.938 153.266H315.174V149.558H320.192C321.073 149.558 321.804 149.437 322.387 149.196C322.969 148.955 323.402 148.592 323.686 148.109C323.978 147.626 324.123 147.026 324.123 146.309C324.123 145.585 323.978 144.974 323.686 144.477C323.402 143.979 322.966 143.603 322.376 143.347C321.794 143.085 321.059 142.953 320.171 142.953H317.06V161H312.447ZM324.23 151.071L329.652 161H324.56L319.255 151.071H324.23ZM331.304 142.985V139.182H349.223V142.985H342.543V161H337.983V142.985H331.304ZM378.368 146.82H373.702C373.616 146.217 373.442 145.68 373.18 145.212C372.917 144.736 372.579 144.331 372.167 143.997C371.756 143.663 371.28 143.408 370.74 143.23C370.207 143.053 369.628 142.964 369.003 142.964C367.874 142.964 366.89 143.244 366.052 143.805C365.214 144.359 364.564 145.169 364.103 146.234C363.641 147.293 363.41 148.578 363.41 150.091C363.41 151.646 363.641 152.953 364.103 154.011C364.572 155.07 365.225 155.869 366.063 156.408C366.901 156.948 367.871 157.218 368.971 157.218C369.589 157.218 370.161 157.136 370.687 156.973C371.219 156.81 371.692 156.572 372.104 156.259C372.515 155.94 372.856 155.553 373.126 155.098C373.403 154.643 373.595 154.125 373.702 153.543L378.368 153.564C378.247 154.565 377.945 155.531 377.462 156.462C376.986 157.385 376.344 158.212 375.534 158.944C374.731 159.668 373.773 160.244 372.657 160.67C371.55 161.089 370.296 161.298 368.897 161.298C366.951 161.298 365.211 160.858 363.677 159.977C362.15 159.097 360.942 157.822 360.055 156.153C359.174 154.484 358.733 152.463 358.733 150.091C358.733 147.712 359.181 145.688 360.076 144.018C360.971 142.349 362.185 141.078 363.719 140.205C365.253 139.324 366.979 138.884 368.897 138.884C370.161 138.884 371.333 139.061 372.412 139.416C373.499 139.771 374.461 140.29 375.3 140.972C376.138 141.646 376.819 142.474 377.345 143.454C377.878 144.434 378.219 145.556 378.368 146.82ZM386.289 139.182V161H381.676V139.182H386.289ZM389.253 142.985V139.182H407.172V142.985H400.492V161H395.933V142.985H389.253ZM408.844 139.182H414.011L418.987 148.578H419.2L424.175 139.182H429.342L421.384 153.287V161H416.803V153.287L408.844 139.182Z" fill="white"/>
<path d="M131 112.5H99.75C96.2982 112.5 93.5 115.298 93.5 118.75V181.25C93.5 184.702 96.2982 187.5 99.75 187.5H131C134.452 187.5 137.25 184.702 137.25 181.25V118.75C137.25 115.298 134.452 112.5 131 112.5Z" stroke="white" stroke-width="13.25" stroke-linecap="round" stroke-linejoin="round"/>
<path d="M162.25 127C166.245 134.007 168.346 141.934 168.346 150C168.346 158.066 166.245 165.993 162.25 173" stroke="white" stroke-width="13.25" stroke-linecap="round" stroke-linejoin="round"/>
<path d="M183.875 113.812C190.119 124.851 193.401 137.318 193.401 150C193.401 162.682 190.119 175.149 183.875 186.188" stroke="white" stroke-width="13.25" stroke-linecap="round" stroke-linejoin="round"/>
<path d="M205.438 100.625C214.047 115.654 218.582 132.671 218.593 149.992C218.604 167.312 214.091 184.335 205.5 199.375" stroke="white" stroke-width="13.25" stroke-linecap="round" stroke-linejoin="round"/>
<defs>
<linearGradient id="paint0_linear_71_106" x1="-15.5" y1="-12.5" x2="529" y2="317" gradientUnits="userSpaceOnUse">
<stop stop-color="#030B5D"/>
<stop offset="1" stop-color="#A200B1"/>
</linearGradient>
</defs>
</svg>
